<?xml version="1.0" standalone="no"?>
<!DOCTYPE svg PUBLIC "-//W3C//DTD SVG 20010904//EN"
 "http://www.w3.org/TR/2001/REC-SVG-20010904/DTD/svg10.dtd">
<svg version="1.0" xmlns="http://www.w3.org/2000/svg"
 width="1207.000000pt" height="1473.000000pt" viewBox="0 0 1207.000000 1473.000000"
 preserveAspectRatio="xMidYMid meet">

<g transform="translate(0.000000,1473.000000) scale(0.100000,-0.100000)"
fill="#000000" stroke="none">
<path d="M140 14547 c-52 -18 -95 -82 -117 -174 -17 -75 -18 -250 -18 -4293 0
-4460 -2 -4287 45 -4607 68 -460 187 -836 400 -1258 231 -460 479 -794 895
-1211 343 -343 667 -606 1109 -898 294 -194 453 -291 1089 -655 742 -425 1910
-1103 2417 -1403 l75 -44 75 44 c478 283 1712 999 2417 1403 636 364 796 461
1088 654 447 296 767 556 1110 899 419 420 663 750 895 1211 213 422 332 798
400 1258 47 320 45 147 45 4607 0 4043 -1 4218 -18 4293 -24 99 -64 156 -127
176 -40 13 -52 12 -110 -3 -35 -9 -112 -43 -170 -76 -551 -309 -1648 -636
-2750 -820 -939 -157 -1795 -224 -2855 -224 -1060 0 -1916 67 -2855 224 -1101
184 -2193 509 -2750 820 -101 56 -191 91 -234 89 -12 0 -37 -5 -56 -12z m1245
-1507 c1608 -418 3809 -608 5805 -500 1379 75 2787 288 3753 569 l67 20 -3
-3712 c-2 -3495 -4 -3720 -20 -3852 -60 -465 -159 -805 -333 -1135 -246 -465
-667 -894 -1201 -1221 -503 -308 -3390 -1982 -3418 -1982 -11 0 -690 389
-1600 916 -1293 748 -1873 1093 -2045 1217 -530 379 -885 812 -1094 1332 -123
306 -194 638 -226 1047 -7 89 -10 1366 -10 3762 l0 3628 68 -20 c37 -11 153
-42 257 -69z"/>
<path d="M10500 12434 c-141 -41 -508 -110 -805 -153 -805 -116 -1847 -198
-3272 -257 l-163 -7 0 -2238 0 -2239 2165 0 2165 0 0 2460 c0 1353 -1 2460 -2
2459 -2 0 -41 -12 -88 -25z m-1409 -1348 c343 -235 632 -437 642 -448 14 -17
17 -42 17 -169 0 -136 -2 -151 -20 -169 -29 -29 -47 -25 -122 25 -37 25 -70
45 -73 45 -3 0 -4 -474 -3 -1052 l3 -1053 65 -5 c57 -4 66 -8 79 -31 13 -24
13 -29 -2 -53 l-17 -26 -1220 0 -1220 0 -17 26 c-15 24 -15 29 -2 53 13 23 21
26 82 29 l67 3 0 1054 c0 580 -2 1055 -5 1055 -3 0 -36 -20 -73 -45 -75 -50
-93 -54 -122 -25 -18 18 -20 33 -20 169 0 127 3 152 18 169 9 11 301 214 647
452 445 304 636 430 651 427 11 -2 301 -196 645 -431z"/>
<path d="M7845 10984 l-590 -406 -3 -65 -3 -65 28 20 c15 11 276 190 578 398
468 322 555 379 585 379 35 0 67 -21 1083 -722 l107 -74 0 63 0 63 -594 408
c-327 224 -596 407 -597 407 -2 -1 -269 -183 -594 -406z"/>
<path d="M7943 10787 l-483 -332 0 -1097 0 -1098 215 0 215 0 0 115 c0 141 8
155 94 155 l55 0 3 313 3 312 27 55 c133 270 467 322 668 104 23 -25 54 -71
68 -102 l27 -57 3 -312 3 -313 55 0 c86 0 94 -14 94 -155 l0 -115 215 0 215 0
0 1098 0 1097 -481 330 c-265 182 -489 331 -498 332 -9 1 -233 -147 -498 -330z
m249 -464 c17 -15 18 -40 18 -369 l0 -353 -22 -15 c-19 -14 -62 -16 -271 -16
l-248 0 -25 25 -25 25 3 346 c3 329 4 346 22 360 16 11 70 14 275 14 223 0
257 -2 273 -17z m1048 -3 c19 -19 20 -33 20 -359 0 -327 -1 -339 -21 -365
l-20 -26 -253 0 c-211 0 -255 2 -274 16 l-22 15 0 351 c0 313 2 353 17 370 15
17 37 18 275 18 245 0 259 -1 278 -20z"/>
<path d="M7740 10120 l0 -100 60 0 60 0 0 100 0 100 -60 0 -60 0 0 -100z"/>
<path d="M7970 10120 l0 -100 65 0 65 0 0 100 0 100 -65 0 -65 0 0 -100z"/>
<path d="M7740 9800 l0 -110 60 0 61 0 -3 108 -3 107 -57 3 -58 3 0 -111z"/>
<path d="M7977 9904 c-4 -4 -7 -54 -7 -111 l0 -103 65 0 66 0 -3 108 -3 107
-55 3 c-31 2 -59 0 -63 -4z"/>
<path d="M8780 10120 l0 -100 60 0 60 0 0 100 0 100 -60 0 -60 0 0 -100z"/>
<path d="M9020 10120 l0 -100 60 0 60 0 0 100 0 100 -60 0 -60 0 0 -100z"/>
<path d="M8787 9903 c-4 -3 -7 -53 -7 -110 l0 -103 60 0 60 0 0 110 0 110 -53
0 c-30 0 -57 -3 -60 -7z"/>
<path d="M9020 9800 l0 -110 60 0 60 0 0 110 0 110 -60 0 -60 0 0 -110z"/>
<path d="M8334 9314 c-60 -21 -119 -77 -151 -142 l-28 -57 -3 -292 -3 -293
291 0 291 0 -3 293 -3 292 -28 57 c-33 67 -91 121 -155 142 -56 20 -153 19
-208 0z m281 -390 c27 -11 38 -53 20 -80 -14 -22 -22 -24 -107 -24 -120 0
-155 27 -112 88 14 20 24 22 99 22 46 0 91 -3 100 -6z"/>
<path d="M8010 8335 l0 -75 430 0 430 0 0 75 0 75 -430 0 -430 0 0 -75z"/>
<path d="M3515 11143 c-571 -73 -985 -396 -1157 -903 -50 -148 -69 -260 -75
-450 -6 -197 9 -334 53 -488 145 -504 545 -823 1117 -893 142 -17 434 -6 559
20 188 41 366 116 511 218 43 30 81 53 83 50 3 -2 15 -62 27 -133 l23 -129 82
-3 82 -3 0 471 0 470 -77 0 -78 0 -23 -78 c-73 -244 -231 -453 -423 -561 -151
-84 -373 -124 -569 -101 -131 15 -201 34 -300 83 -69 33 -102 58 -175 132
-143 144 -220 305 -266 560 -29 159 -32 506 -6 660 69 398 227 655 479 779
117 58 186 75 318 83 241 13 428 -57 596 -222 111 -109 195 -257 234 -412 l14
-53 67 0 68 0 5 43 c5 39 66 801 66 826 0 7 -30 11 -83 11 l-84 0 -32 -105
c-17 -58 -36 -105 -41 -105 -5 0 -37 16 -71 36 -158 93 -345 164 -499 189 -87
14 -342 19 -425 8z"/>
<path d="M1340 6592 c0 -750 4 -834 55 -1087 123 -614 459 -1196 918 -1593
145 -124 285 -224 497 -353 325 -197 1673 -988 2785 -1633 l200 -116 3 2717
c1 1494 1 2717 0 2718 -2 1 -955 9 -2118 19 -1163 9 -2166 18 -2227 21 l-113
4 0 -697z m2080 243 c80 -25 161 -68 225 -121 l57 -46 32 30 c51 49 139 100
223 129 71 25 90 27 218 27 131 -1 150 -3 296 -42 85 -23 200 -49 255 -58 131
-21 304 -21 364 0 42 16 46 16 70 -2 24 -18 25 -23 28 -146 l3 -126 36 0 c21
0 77 10 126 22 l88 21 22 -22 22 -22 0 -782 0 -782 -27 -46 c-35 -60 -110
-127 -181 -162 -166 -81 -422 -80 -747 5 -210 55 -325 68 -419 47 -71 -15
-110 -45 -135 -105 -37 -89 -19 -84 -276 -84 -258 0 -239 -6 -283 93 -23 50
-33 61 -74 80 -41 19 -64 22 -158 21 -95 -1 -136 -7 -300 -47 -241 -59 -302
-68 -450 -68 -196 -1 -322 40 -424 135 -30 28 -64 74 -77 101 l-24 50 0 773
c0 759 0 772 20 792 11 11 26 20 33 20 8 0 49 -9 92 -20 43 -11 95 -20 117
-20 l38 0 0 125 c0 112 2 127 20 145 24 24 26 24 81 4 54 -20 220 -22 334 -5
44 7 161 32 260 56 99 24 191 46 205 49 52 10 256 -3 310 -19z"/>
<path d="M3100 6733 c-14 -2 -83 -20 -155 -38 -236 -61 -288 -69 -457 -70
l-158 0 0 -751 0 -752 23 -6 c42 -11 212 -6 307 9 52 9 167 35 255 58 152 39
167 42 305 42 126 0 154 -3 218 -24 40 -13 101 -41 135 -61 l62 -38 3 726 2
726 -47 48 c-54 55 -136 101 -218 123 -55 14 -213 19 -275 8z m161 -346 c116
-30 193 -65 197 -90 7 -35 -8 -67 -32 -73 -15 -3 -54 5 -98 19 -221 76 -446
76 -639 1 -78 -31 -115 -27 -125 10 -11 44 5 66 64 92 50 22 157 53 232 68 14
2 88 3 165 1 109 -2 161 -9 236 -28z m-52 -392 c96 -20 208 -59 232 -81 28
-25 25 -70 -6 -90 -23 -15 -28 -15 -78 5 -118 48 -206 64 -352 65 -150 1 -205
-9 -331 -60 -61 -24 -66 -25 -89 -10 -30 20 -33 65 -7 90 37 33 189 81 317
100 55 8 239 -3 314 -19z m46 -414 c50 -12 115 -34 145 -49 45 -22 56 -32 58
-55 4 -32 -21 -67 -47 -67 -9 0 -40 9 -70 20 -204 78 -424 85 -610 19 -123
-43 -129 -44 -151 -24 -32 29 -26 72 13 95 37 23 136 58 217 76 88 21 335 12
445 -15z"/>
<path d="M4023 6725 c-80 -22 -165 -69 -216 -119 l-47 -45 0 -732 0 -731 33
22 c180 120 391 141 668 67 75 -20 189 -46 253 -57 113 -19 286 -26 334 -14
l22 6 0 752 0 751 -107 -3 c-145 -5 -265 11 -473 65 -148 38 -194 45 -295 49
-86 3 -135 0 -172 -11z m660 -339 c161 -48 209 -87 173 -141 -21 -31 -43 -32
-122 0 -184 73 -429 73 -634 -1 -83 -30 -105 -30 -124 -2 -36 51 -7 83 114
123 130 43 211 55 365 51 115 -3 156 -9 228 -30z m-27 -396 c104 -27 200 -72
209 -99 7 -24 -8 -57 -35 -71 -15 -8 -33 -5 -77 14 -199 83 -423 85 -653 6
-84 -29 -85 -29 -110 -11 -62 46 -31 88 95 130 192 64 399 75 571 31z m-41
-395 c101 -21 209 -62 235 -90 28 -30 21 -71 -15 -87 -20 -9 -38 -6 -102 19
-108 43 -181 56 -303 56 -125 0 -204 -14 -324 -55 -99 -33 -130 -30 -142 16
-10 40 11 62 88 91 167 62 403 83 563 50z"/>
<path d="M2030 5666 c0 -780 -3 -742 57 -798 36 -34 115 -74 178 -89 74 -18
284 -15 390 5 50 9 149 33 222 51 351 90 570 52 643 -112 l19 -43 159 0 160 0
27 55 c40 83 116 129 237 145 100 12 236 -4 417 -49 86 -21 190 -45 231 -52
101 -17 281 -17 357 0 83 18 171 68 211 120 l32 43 0 720 0 721 -32 -7 c-18
-4 -59 -9 -90 -13 l-58 -6 0 -644 c0 -406 -4 -651 -10 -663 -20 -38 -103 -55
-260 -54 -162 0 -236 12 -480 76 -135 35 -169 40 -265 40 -85 0 -125 -4 -176
-21 -85 -27 -175 -86 -228 -149 -24 -28 -49 -53 -57 -56 -23 -9 -57 13 -89 57
-41 55 -141 122 -223 148 -52 17 -91 21 -177 21 -98 0 -130 -5 -290 -46 -230
-59 -379 -80 -510 -73 -114 7 -168 20 -196 48 -18 18 -19 40 -19 668 l0 648
-57 6 c-32 4 -73 9 -90 13 l-33 7 0 -717z"/>
<path d="M7100 6596 l0 -65 48 -6 c141 -19 187 -36 227 -89 54 -71 55 -88 55
-1106 0 -564 -4 -959 -10 -995 -24 -145 -87 -197 -264 -217 l-96 -12 0 -63 0
-63 1185 0 1185 0 0 28 c0 15 11 182 25 372 14 190 25 355 25 368 0 21 -4 22
-65 22 l-64 0 -11 -42 c-85 -330 -199 -468 -437 -529 -226 -57 -660 -43 -796
27 -42 22 -106 83 -124 118 -39 76 -43 119 -43 539 l0 407 73 0 c143 0 344
-20 409 -40 147 -45 200 -121 243 -347 7 -33 7 -33 66 -33 l59 0 0 510 0 510
-59 0 -58 0 -11 -68 c-47 -285 -135 -343 -539 -358 l-183 -7 0 487 0 487 25
25 26 26 372 -5 c409 -5 458 -10 573 -67 119 -58 200 -179 233 -345 l16 -85
73 0 72 0 -6 143 c-3 78 -9 230 -12 337 l-7 195 -1102 3 -1103 2 0 -64z"/>
</g>
</svg>
