<svg id="_x33_0" enable-background="new 0 0 64 64" height="512" viewBox="0 0 64 64" width="512" xmlns="http://www.w3.org/2000/svg"><g><g><g><path d="m22.06 36.77c-.68 1.26-1.06 2.7-1.06 4.23v.49c0 .98-.29 1.95-.84 2.77l-.54.8c-.4.61-.62 1.33-.62 2.06 0 .58.13 1.15.39 1.66l.72 1.43c.49.99.09 2.19-.9 2.68l-.07.04c-.84.42-1.49 1.13-1.84 1.97-.54-.57-1.29-.9-2.1-.9-.77 0-1.51.31-2.05.85l-1.15 1.15v6h-4c-3.31 0-6-2.69-6-6v-10.81c0-2.06.7-4.07 2-5.68 1.29-1.63 3.11-2.76 5.13-3.21l3.13-.69 2.74 6.39 5-4z" fill="#75b1f2"/></g><g><path d="m20 38-5 4-2.74-6.39 2.74-.61z" fill="#5d9cec"/></g><g><path d="m56 50v6h-4l-1.15-1.15c-.54-.54-1.28-.85-2.05-.85-.81 0-1.56.33-2.1.9-.35-.84-1-1.55-1.84-1.97l-.07-.04c-.99-.49-1.39-1.69-.9-2.68l.72-1.43c.26-.51.39-1.08.39-1.66 0-.73-.22-1.45-.62-2.06l-.54-.8c-.55-.82-.84-1.79-.84-2.77v-.49c0-1.61-.43-3.13-1.17-4.44.68.29 1.41.44 2.17.44.94 0 1.84-.24 2.64-.66.8-.44 1.5-1.06 2.02-1.84l.34-.5s2.82.4 4.87.7c.12.02.25.04.37.06 1.27.23 2.48.71 3.56 1.44l.07.05c2.58 1.72 4.14 4.62 4.14 7.73l-.01 6.02z" fill="#fcd770"/></g><g><path d="m28 59c.29 0 .56-.05.82-.13.03 1.73 1.44 3.13 3.18 3.13h-13c.83 0 1.58-.34 2.12-.88s.88-1.29.88-2.12c0-.6-.18-1.16-.48-1.63 1.04-1.12 2.31-2.01 3.74-2.59-.17.37-.26.79-.26 1.22 0 1.66 1.34 3 3 3z" fill="#ff826e"/></g><g><path d="m36 59c1.66 0 3-1.34 3-3 0-.43-.09-.85-.26-1.22 1.43.58 2.7 1.47 3.74 2.58-.3.47-.48 1.03-.48 1.64 0 .83.34 1.58.88 2.12s1.29.88 2.12.88h-13c1.74 0 3.15-1.4 3.18-3.13.26.08.53.13.82.13z" fill="#ff826e"/></g><g><path d="m36 53c1.23 0 2.28.73 2.74 1.78.17.37.26.79.26 1.22 0 1.66-1.34 3-3 3-.29 0-.56-.05-.82-.13-.03 1.73-1.44 3.13-3.18 3.13s-3.15-1.4-3.18-3.13c-.26.08-.53.13-.82.13-1.66 0-3-1.34-3-3 0-.43.09-.85.26-1.22.46-1.05 1.51-1.78 2.74-1.78.15 0 .3.01.45.03.18.11.36.21.55.29v.01 1.67c0 1.66 1.34 3 3 3 .83 0 1.58-.34 2.12-.88s.88-1.29.88-2.12v-1.67-.01c.19-.08.37-.18.55-.29.15-.02.3-.03.45-.03z" fill="#fc6e51"/></g><g><path d="m44.86 52.93c.84.42 1.49 1.13 1.84 1.97-.2.21-.37.45-.5.71l-.2.39h-1c-1.05 0-1.98.54-2.52 1.36-1.04-1.11-2.31-2-3.74-2.58-.46-1.05-1.51-1.78-2.74-1.78-.15 0-.3.01-.45.03 2.07-1.21 3.45-3.46 3.45-6.03v-3.31c0-1.53-1.15-2.82-2.67-2.99l-2.23-.24c-1.5-.17-2.84-.89-3.79-1.98l-1.68.48c-2.15.62-3.63 2.58-3.63 4.81v3.23c0 1.94.78 3.68 2.05 4.95.42.42.89.78 1.4 1.08-.15-.02-.3-.03-.45-.03-1.23 0-2.28.73-2.74 1.78-1.43.58-2.7 1.47-3.74 2.59-.53-.83-1.46-1.37-2.52-1.37h-1l-.2-.39c-.13-.26-.3-.5-.5-.71.35-.84 1-1.55 1.84-1.97l.07-.04c.99-.49 1.39-1.69.9-2.68l-.72-1.43c-.26-.51-.39-1.08-.39-1.66 0-.73.22-1.45.62-2.06l.54-.8c.55-.82.84-1.79.84-2.77v-.49c0-1.53.38-2.97 1.06-4.23.64-1.22 1.56-2.27 2.68-3.07 1.47-1.07 3.3-1.7 5.26-1.7h1.73 2.27c1.89 0 3.65.59 5.1 1.59 1.12.77 2.06 1.78 2.73 2.97.74 1.31 1.17 2.83 1.17 4.44v.49c0 .98.29 1.95.84 2.77l.54.8c.4.61.62 1.33.62 2.06 0 .58-.13 1.15-.39 1.66l-.72 1.43c-.49.99-.09 2.19.9 2.68z" fill="#656d78"/></g><g><path d="m39.32 10.23h-.01l-.52.17c-2.86.96-4.79 3.63-4.79 6.65v3.95c0-.86-.36-1.63-.94-2.18.62-1.93.94-3.95.94-5.98 0-1.86-.47-3.6-1.29-5.13 2.55-3.46 6.66-5.71 11.29-5.71 3.86 0 7.36 1.57 9.9 4.1 2.53 2.54 4.1 6.04 4.1 9.9v9.34c0 3.51-1.35 6.88-3.76 9.42-.12-.02-.25-.04-.37-.06-2.05-.3-4.87-.7-4.87-.7l-.96-3.85v-.01c3.51-1.55 5.96-5.06 5.96-9.14v-3.24c0-2.11-1.64-3.86-3.75-3.99l-5.26-.33c-2.36-.15-4.41-1.39-5.67-3.21z" fill="#656d78"/></g><g><path d="m39.96 30.14v.01l-.86 3.44c-1.45-1-3.21-1.59-5.1-1.59h-2.27c-1.12-2.02-1.73-4.31-1.73-6.66v-1.34h1c.83 0 1.58-.34 2.12-.88s.88-1.29.88-2.12c0 2.76 1.12 5.26 2.93 7.07.87.87 1.89 1.57 3.03 2.07z" fill="#656d78"/></g><g><path d="m56 56v-6h6v6c0 3.31-2.69 6-6 6h-11c-.83 0-1.58-.34-2.12-.88s-.88-1.29-.88-2.12c0-.61.18-1.17.48-1.64.54-.82 1.47-1.36 2.52-1.36h1l.2-.39c.13-.26.3-.5.5-.71.54-.57 1.29-.9 2.1-.9.77 0 1.51.31 2.05.85l1.15 1.15z" fill="#f0d0b4"/></g><g><path d="m48.04 30.15.96 3.85-.34.5c-.52.78-1.22 1.4-2.02 1.84-.8.42-1.7.66-2.64.66-.76 0-1.49-.15-2.17-.44-.67-1.19-1.61-2.2-2.73-2.97l.86-3.44v-.01c1.23.56 2.6.86 4.04.86s2.81-.3 4.04-.86z" fill="#f0d0b4"/></g><g><path d="m39.32 10.23c1.26 1.82 3.31 3.06 5.67 3.21l5.26.33c2.11.13 3.75 1.88 3.75 3.99v3.24c0 4.08-2.45 7.59-5.96 9.14-1.23.56-2.6.86-4.04.86s-2.81-.3-4.04-.86c-1.14-.5-2.16-1.2-3.03-2.07-1.81-1.81-2.93-4.31-2.93-7.07v-3.95c0-3.02 1.93-5.69 4.79-6.65l.52-.17z" fill="#f0d0b4"/></g><g><path d="m39 43.69v3.31c0 2.57-1.38 4.82-3.45 6.03-.18.11-.36.21-.55.29-.91.44-1.93.68-3 .68l-3-.68c-.19-.08-.37-.18-.55-.29-.51-.3-.98-.66-1.4-1.08-1.27-1.27-2.05-3.01-2.05-4.95v-3.23c0-2.23 1.48-4.19 3.63-4.81l1.68-.48c.95 1.09 2.29 1.81 3.79 1.98l2.23.24c1.52.17 2.67 1.46 2.67 2.99z" fill="#f0d0b4"/></g><g><path d="m35 53.33v1.67c0 .83-.34 1.58-.88 2.12s-1.29.88-2.12.88c-1.66 0-3-1.34-3-3v-1.67-.01l3 .68c1.07 0 2.09-.24 3-.68z" fill="#f0d0b4"/></g><g><path d="m21.52 57.37c.3.47.48 1.03.48 1.63 0 .83-.34 1.58-.88 2.12s-1.29.88-2.12.88h-7v-6l1.15-1.15c.54-.54 1.28-.85 2.05-.85.81 0 1.56.33 2.1.9.2.21.37.45.5.71l.2.39h1c1.06 0 1.99.54 2.52 1.37z" fill="#f0d0b4"/></g><g><path d="m24.22 31.08.52 2.62c-1.12.8-2.04 1.85-2.68 3.07l-2.06 1.23-5-3 .78-3.92.01-.02c1.28.61 2.7.94 4.21.94s2.93-.33 4.21-.94z" fill="#f0d0b4"/></g><g><path d="m14.15 11.53-1.22.73c-1.82 1.08-2.93 3.04-2.93 5.15v.59h-1c-.8 0-1.53.32-2.06.82-.62-1.93-.94-3.95-.94-5.98 0-3 1.21-5.7 3.17-7.67 1.97-1.96 4.67-3.17 7.67-3.17h6.32c4.13 0 7.73 2.31 9.55 5.71.82 1.53 1.29 3.27 1.29 5.13 0 2.03-.32 4.05-.94 5.98-.53-.5-1.26-.82-2.06-.82h-1c0-2.21-1.79-4-4-4h-8.51c-.97 0-1.84-.39-2.47-1.02-.4-.4-.7-.89-.87-1.45z" fill="#b27946"/></g><g><path d="m29.8 24c.13-.64.2-1.31.2-2v-4h1c.8 0 1.53.32 2.06.82.58.55.94 1.32.94 2.18 0 .83-.34 1.58-.88 2.12s-1.29.88-2.12.88h-1z" fill="#f0d0b4"/></g><g><path d="m23.15 23h-6.3c-1.13 0-2.17.64-2.68 1.66l-1.86 3.73c-1.03-1.24-1.77-2.74-2.11-4.39-.13-.64-.2-1.31-.2-2v-4-.59c0-2.11 1.11-4.07 2.93-5.15l1.22-.73c.17.56.47 1.05.87 1.45.63.63 1.5 1.02 2.47 1.02h8.51c2.21 0 4 1.79 4 4v4c0 .69-.07 1.36-.2 2-.34 1.65-1.08 3.15-2.11 4.39l-1.86-3.73c-.51-1.02-1.55-1.66-2.68-1.66z" fill="#f0d0b4"/></g><g><path d="m10.2 24h-1.2c-.83 0-1.58-.34-2.12-.88s-.88-1.29-.88-2.12c0-.86.36-1.63.94-2.18.53-.5 1.26-.82 2.06-.82h1v4c0 .69.07 1.36.2 2z" fill="#f0d0b4"/></g><g><path d="m16.85 23h6.3c1.13 0 2.17.64 2.68 1.66l1.86 3.73c-.94 1.13-2.13 2.05-3.48 2.67-1.28.61-2.7.94-4.21.94s-2.93-.33-4.21-.94c-1.07-.49-2.04-1.17-2.86-1.99-.22-.22-.42-.44-.62-.68l1.86-3.73c.51-1.02 1.55-1.66 2.68-1.66z" fill="#cf9e76"/></g></g><g><path d="m16 19c.552 0 1 .449 1 1h2c0-1.654-1.346-3-3-3s-3 1.346-3 3h2c0-.551.448-1 1-1z"/><path d="m24 19c.552 0 1 .449 1 1h2c0-1.654-1.346-3-3-3s-3 1.346-3 3h2c0-.551.448-1 1-1z"/><path d="m23.789 26.658.105-.211-1.789-.895-.105.212c-.381.762-1.147 1.236-2 1.236s-1.619-.474-2-1.236l-.105-.211-1.789.895.105.21c.722 1.445 2.174 2.342 3.789 2.342s3.067-.897 3.789-2.342z"/><path d="m40 19c.552 0 1 .449 1 1h2c0-1.654-1.346-3-3-3s-3 1.346-3 3h2c0-.551.448-1 1-1z"/><path d="m48 17c-1.654 0-3 1.346-3 3h2c0-.551.448-1 1-1s1 .449 1 1h2c0-1.654-1.346-3-3-3z"/><path d="m47 23.838c-.432 1.293-1.637 2.162-3 2.162s-2.568-.869-3-2.165l-.052-.154-1.896.638.052.151c.703 2.112 2.67 3.53 4.896 3.53s4.193-1.418 4.896-3.527l.052-.154-1.896-.638z"/><path d="m58.355 35.368c-.739-.493-1.527-.874-2.347-1.163 1.935-2.54 2.992-5.629 2.992-8.862v-9.343c0-8.271-6.729-15-15-15-4.273 0-8.346 1.862-11.176 5.021-2.146-3.032-5.673-5.021-9.662-5.021h-6.324c-6.527 0-11.838 5.311-11.838 11.838 0 1.949.291 3.876.836 5.743-.517.674-.836 1.506-.836 2.419 0 2.206 1.794 4 4 4h.426c.805 2.832 2.711 5.201 5.232 6.608l-.511 2.557-5.233 1.162c-2.241.5-4.266 1.762-5.699 3.553-1.428 1.786-2.215 4.028-2.215 6.314v10.806c0 3.859 3.141 7 7 7h48.002c3.858 0 6.999-3.14 7-6.998l.004-12.021c.001-3.451-1.712-6.653-4.651-8.613zm2.651 8.612-.002 5.02h-4.004v-6h-2v12h-2.586l-.855-.855c-.739-.739-1.719-1.145-2.763-1.145-.648 0-1.264.164-1.812.45-.454-.591-1.033-1.093-1.748-1.45-.493-.246-.694-.849-.447-1.342l.714-1.427c.325-.65.497-1.378.497-2.107 0-.934-.273-1.837-.791-2.613l-.537-.806c-.44-.659-.672-1.426-.672-2.219v-.486c0-1.054-.166-2.069-.47-3.023.156.011.312.023.47.023 2.204 0 4.251-1.092 5.481-2.921l4.253.608c1.261.179 2.442.632 3.58 1.391 2.312 1.542 3.693 4.122 3.692 6.902zm-38.277 13.604c.411-.383.854-.731 1.327-1.037.269 1.943 1.922 3.45 3.937 3.453.107.357.27.689.464 1h-6.012c.343-.591.555-1.268.555-2 0-.5-.103-.975-.271-1.416zm7.271-2.847c.641.166 1.308.263 2 .263s1.359-.097 2-.263v.263c0 1.103-.897 2-2 2s-2-.897-2-2zm6 .263v-1c1.103 0 2 .897 2 2s-.897 2-2 2c-.159 0-.332-.028-.545-.089l-.564-.161c.683-.718 1.109-1.683 1.109-2.75zm-4-2c-3.309 0-6-2.691-6-6v-3.229c0-1.776 1.192-3.358 2.9-3.846l1.112-.317c1.071 1.005 2.457 1.672 3.975 1.841l2.233.248c1.015.113 1.78.968 1.78 1.989v3.314c0 3.309-2.691 6-6 6zm-4 1v1c0 1.067.426 2.032 1.109 2.75l-.564.161c-.213.061-.386.089-.545.089-1.103 0-2-.897-2-2s.897-2 2-2zm1.82 4.854-.009-.513c.63.414 1.38.659 2.189.659s1.559-.245 2.189-.659l-.009.513c-.022 1.183-.999 2.146-2.18 2.146s-2.158-.963-2.18-2.146zm6.188 1.146c2.015-.004 3.668-1.51 3.937-3.453.473.307.915.654 1.327 1.037-.169.442-.272.916-.272 1.416 0 .732.212 1.409.556 2h-6.012c.193-.311.357-.643.464-1zm6.44-4.055c-.892-.794-1.909-1.447-2.998-1.933-.382-.661-.943-1.196-1.622-1.549 1.343-1.432 2.172-3.35 2.172-5.463v-3.314c0-2.041-1.53-3.751-3.559-3.977l-2.233-.248c-2.037-.226-3.74-1.715-4.238-3.704l-1.939.486c.147.589.37 1.146.656 1.663l-.335.096c-2.563.732-4.352 3.104-4.352 5.769v3.229c0 2.113.829 4.031 2.172 5.463-.679.353-1.24.888-1.622 1.549-1.089.486-2.107 1.139-2.998 1.933-.695-.581-1.577-.945-2.552-.945h-.386c-.039-.069-.086-.132-.128-.198.28-.416.671-.763 1.172-1.013.717-.358 1.251-.975 1.505-1.734.253-.761.195-1.574-.163-2.291l-.714-1.427c-.187-.374-.286-.794-.286-1.213 0-.537.157-1.058.455-1.504l.537-.806c.659-.988 1.008-2.139 1.008-3.328v-.486c0-4.411 3.589-8 8-8h4c4.411 0 8 3.589 8 8v.486c0 1.188.349 2.34 1.008 3.328l.537.806c.298.446.455.967.455 1.504 0 .419-.099.839-.286 1.213l-.714 1.427c-.358.717-.416 1.53-.163 2.291.254.76.788 1.376 1.574 1.769.45.225.827.565 1.103.978-.043.067-.09.129-.129.198h-.385c-.975 0-1.857.364-2.552.945zm-13.209-27.997c.189 1.046.492 2.07.903 3.052h-.142c-1.643 0-3.19.405-4.558 1.11l-.1-.502c1.58-.882 2.918-2.144 3.897-3.66zm1.761-5.948v-3c1.103 0 2 .897 2 2s-.897 2-2 2h-.051c.03-.33.051-.662.051-1zm16.923 11.813-.091.136c-.856 1.284-2.289 2.051-3.832 2.051-.523 0-1.031-.106-1.523-.279-.603-.964-1.36-1.82-2.245-2.528l.429-1.715c1.054.337 2.175.522 3.339.522s2.285-.185 3.339-.522zm-15.562-2.813c-.877-1.755-1.361-3.692-1.361-5.657v-.343c.932 0 1.779-.333 2.46-.87.841 2.827 2.786 5.182 5.337 6.558l-.343 1.372c-1.343-.672-2.852-1.06-4.454-1.06zm11.639-1c-4.963 0-9-4.038-9-9v-3.955c0-2.536 1.585-4.785 3.959-5.643 1.441 1.73 3.562 2.882 5.964 3.032l5.265.329c1.577.099 2.812 1.415 2.812 2.995v3.242c0 4.962-4.037 9-9 9zm0-27c7.168 0 13 5.832 13 13v9.343c0 3.092-1.124 6.028-3.154 8.339l-4.04-.576-.604-2.417c3.449-1.86 5.798-5.505 5.798-9.689v-3.242c0-2.634-2.059-4.826-4.688-4.99l-5.265-.329c-3.391-.212-6.047-3.041-6.047-6.439l-2 .001c0 1.319.306 2.572.851 3.69-1.14.487-2.121 1.226-2.902 2.131-.12-1.405-.49-2.736-1.06-3.959 2.459-3.046 6.186-4.863 10.111-4.863zm-35 20c-1.103 0-2-.897-2-2s.897-2 2-2v3c0 .338.021.67.051 1zm.027-6h-.027c-.513 0-1.001.106-1.452.283-.36-1.453-.548-2.943-.548-4.445 0-5.425 4.413-9.838 9.838-9.838h6.324c5.425 0 9.838 4.413 9.838 9.838 0 1.503-.188 2.992-.548 4.445-.451-.177-.939-.283-1.452-.283h-.101c-.465-2.279-2.484-4-4.899-4h-8.513c-1.371 0-2.487-1.116-2.487-2.487 0-1.072.684-2.021 1.699-2.359l.616-.205-.631-1.897-.617.205c-1.835.611-3.067 2.322-3.067 4.256 0 .175.01.348.029.519l-.611.364c-1.99 1.185-3.253 3.307-3.391 5.604zm1.973.41c0-1.753.936-3.399 2.441-4.296l.278-.166c.802 1.234 2.191 2.052 3.768 2.052h8.513c1.654 0 3 1.346 3 3v4c0 1.608-.429 3.115-1.171 4.422l-1.106-2.211c-.681-1.364-2.052-2.211-3.577-2.211h-6.291c-1.525 0-2.896.847-3.578 2.211l-1.106 2.211c-.742-1.307-1.171-2.814-1.171-4.422zm2.509 10.808 1.556-3.112c.341-.683 1.027-1.106 1.789-1.106h6.291c.763 0 1.448.423 1.789 1.105l1.556 3.112c-1.638 1.712-3.939 2.783-6.49 2.783s-4.852-1.071-6.491-2.782zm6.491 4.782c1.212 0 2.375-.205 3.467-.568l.172.859c-.925.765-1.704 1.697-2.306 2.744l-1.333.799-3.881-2.329.415-2.073c1.091.363 2.254.568 3.466.568zm-5.172 3.063 3.424 2.055-2.851 2.281-1.747-4.075zm-11.828 19.937v-10.806c0-1.833.631-3.632 1.777-5.064 1.149-1.438 2.773-2.449 4.571-2.85l2.32-.516 2.93 6.837 5.582-4.465c-.114.605-.18 1.227-.18 1.864v.486c0 .793-.232 1.56-.672 2.219l-.537.806c-.518.776-.791 1.679-.791 2.613 0 .729.172 1.457.497 2.107l.714 1.427c.247.493.046 1.096-.517 1.376-.669.334-1.233.828-1.68 1.415-.548-.286-1.163-.45-1.81-.45-1.044 0-2.024.406-2.763 1.145l-.855.856h-2.586v-12h-2v12h-2v2h6v4h-3c-2.757 0-5-2.243-5-5zm10 5v-4.586l.855-.855c.36-.36.839-.559 1.349-.559.727 0 1.38.404 1.705 1.053l.472.947h1.619c1.103 0 2 .897 2 2s-.897 2-2 2zm43.002 0h-11.002c-1.103 0-2-.897-2-2s.897-2 2-2h1.619l.472-.945c.325-.651.978-1.055 1.705-1.055.51 0 .988.198 1.349.559l1.441 1.441h7.414v-2h-2v-4h4.004l-.002 5.002c-.001 2.756-2.244 4.998-5 4.998z"/><circle cx="29" cy="45" r="1"/><circle cx="35" cy="45" r="1"/><path d="m34 47.764c-.381.762-1.147 1.236-2 1.236s-1.619-.474-2-1.236l-.105-.211-1.789.895.105.211c.722 1.444 2.174 2.341 3.789 2.341s3.067-.897 3.789-2.342l.105-.211-1.789-.895z"/></g></g></svg>