<?xml version="1.0" encoding="iso-8859-1"?>
<!-- Generator: Adobe Illustrator 19.0.0, SVG Export Plug-In . SVG Version: 6.00 Build 0)  -->
<svg version="1.1" id="Capa_1" xmlns="http://www.w3.org/2000/svg" xmlns:xlink="http://www.w3.org/1999/xlink" x="0px" y="0px"
	 viewBox="0 0 512.002 512.002" style="enable-background:new 0 0 512.002 512.002;" xml:space="preserve">
<path style="fill:#FCD2BE;" d="M272.085,75.45l34.386,93.109c15.759,42.669,63.144,64.495,105.826,48.732
	c11.432-4.223,21.358-10.71,29.476-18.764l-0.004-0.012c19.638-19.49,28.646-48.172,22.453-76.172
	c2.985-2.471,5.48-5.628,7.216-9.398c6.145-13.32,0.316-29.104-13.012-35.232c-13.324-6.157-29.121-0.323-35.257,13.02
	l-20.233-34.815l-13.782-23.703L272.085,75.45z"/>
<path style="fill:#FAB998;" d="M441.768,198.514c19.638-19.49,28.646-48.172,22.453-76.172c2.985-2.471,5.48-5.628,7.216-9.398
	c6.145-13.32,0.316-29.104-13.012-35.232c-13.324-6.157-29.121-0.323-35.257,13.02l-20.233-34.815l-18.819,11.644
	C398.134,79.19,454.199,119.826,441.768,198.514z"/>
<path style="fill:#50515B;" d="M435.621,43.931l11.573,31.336c-10.004,0.034-19.552,5.767-24.017,15.463l-6.906-18.698
	c-5.126,1.893-9.807,2.798-14.098,2.944c-25.506,0.954-36.38-24.521-36.38-24.521c-15.55,33.738-84.315,50.403-84.315,50.403
	c-6.429-17.407-5.193-35.773,2.003-51.395c7.187-15.604,20.341-28.48,37.748-34.91l28.09-10.374
	C384.119-8.674,422.764,9.116,435.621,43.931z"/>
<path style="fill:#393A42;" d="M435.621,43.931l11.573,31.336c-10.004,0.034-19.552,5.767-24.017,15.463l-6.906-18.698
	c-5.126,1.893-9.807,2.798-14.098,2.944c-6.699-38.793-39.001-75.912-69.735-64.562l16.878-6.234
	C384.119-8.674,422.764,9.116,435.621,43.931z"/>
<g>
	<path style="fill:#50515B;" d="M365.766,134.255c-3.301,0-6.403-2.029-7.612-5.306l-4.72-12.782
		c-1.554-4.204,0.597-8.87,4.8-10.423c4.208-1.554,8.87,0.597,10.423,4.801l4.72,12.782c1.554,4.204-0.597,8.87-4.8,10.423
		C367.648,134.093,366.698,134.255,365.766,134.255z"/>
	<path style="fill:#50515B;" d="M332.534,146.528c-3.301,0-6.403-2.029-7.612-5.304l-4.721-12.782
		c-1.554-4.203,0.596-8.87,4.8-10.423c4.201-1.555,8.87,0.596,10.423,4.8l4.721,12.782c1.554,4.203-0.596,8.87-4.8,10.423
		C334.417,146.366,333.468,146.528,332.534,146.528z"/>
</g>
<path style="fill:#FFFFFF;" d="M383.579,193.289c-3.142,0-6.132-1.835-7.455-4.903c-1.775-4.115,0.122-8.889,4.238-10.664
	c11.645-5.022,18.446-12.935,20.214-23.521c0.738-4.419,4.906-7.408,9.34-6.668c4.419,0.738,7.405,4.919,6.667,9.339
	c-2.695,16.146-12.998,28.509-29.794,35.751C385.741,193.075,384.65,193.289,383.579,193.289z"/>
<path style="fill:#FCD2BE;" d="M153.167,237.12l29.599,94.739c13.565,43.417-10.646,89.629-54.076,103.198
	c-11.632,3.634-23.455,4.555-34.801,3.13l-0.004-0.013c-27.452-3.45-52.095-20.67-64.282-46.628
	c-3.873-0.135-7.775-1.113-11.453-3.039c-12.998-6.8-18.015-22.86-11.201-35.849c6.795-13.011,22.869-18.032,35.874-11.208
	l-5.225-39.927l-3.552-27.187L153.167,237.12z"/>
<path style="fill:#FAB998;" d="M93.887,438.175c-27.452-3.45-52.095-20.67-64.282-46.628c-3.873-0.135-7.775-1.113-11.453-3.039
	c-12.998-6.8-18.015-22.86-11.201-35.849c6.795-13.011,22.869-18.032,35.874-11.208L37.6,301.524l22.014-2.265
	C55.611,317.026,36.008,383.436,93.887,438.175z"/>
<path style="fill:#F9CE55;" d="M177.952,187.297c11.79,37.738-9.25,77.88-46.976,89.667l-71.361,22.295l1.981,6.342
	c4.713,15.086-3.702,31.128-18.787,35.842c-9.588-5.023-20.855-3.603-28.824,2.704L5.266,316.24
	c-11.786-37.725,9.25-77.88,46.976-89.667L177.952,187.297z"/>
<path style="fill:#E2A11E;" d="M108.003,209.151l-55.761,17.421C14.517,238.358-6.52,278.513,5.266,316.239l8.719,27.906
	c7.97-6.306,19.237-7.727,28.824-2.704c15.086-4.713,23.501-20.756,18.787-35.842l-1.981-6.342l1.412-0.441
	C49.241,261.092,70.278,220.937,108.003,209.151z"/>
<g>
	<path style="fill:#50515B;" d="M109.911,342.569c-3.454,0-6.658-2.224-7.742-5.697l-4.064-13.006
		c-1.336-4.278,1.047-8.828,5.325-10.164c4.274-1.334,8.828,1.047,10.164,5.325l4.064,13.006c1.336,4.278-1.047,8.828-5.325,10.164
		C111.528,342.449,110.713,342.569,109.911,342.569z"/>
	<path style="fill:#50515B;" d="M143.726,332.004c-3.454,0-6.658-2.224-7.742-5.697l-4.064-13.006
		c-1.336-4.278,1.047-8.828,5.325-10.164c4.276-1.333,8.828,1.047,10.164,5.325l4.064,13.006c1.336,4.278-1.047,8.828-5.325,10.164
		C145.343,331.884,144.527,332.004,143.726,332.004z"/>
</g>
<path style="fill:#FFFFFF;" d="M119.297,401.861c-11.784,0-22.282-4.061-30.874-12.047c-3.282-3.051-3.471-8.184-0.42-11.468
	c3.051-3.281,8.185-3.471,11.468-0.42c7.861,7.306,18.079,9.424,30.368,6.291c4.345-1.105,8.76,1.517,9.867,5.861
	c1.106,4.343-1.517,8.76-5.861,9.867C128.822,401.226,123.959,401.861,119.297,401.861z"/>
<g>
	<path style="fill:#EF4A6E;" d="M48.968,430.145c7.433,10.163,17.729,20.448,30.201,29.566c12.476,9.121,25.394,15.811,37.34,19.81
		l12.336-16.872c3.487-4.77,10.182-5.81,14.952-2.322l22.534,16.476c4.77,3.487,5.81,10.182,2.322,14.952l-2.869,3.924
		c-18.159,24.837-65.824,20.888-106.46-8.824c-40.635-29.712-58.855-73.933-40.696-98.77l2.869-3.924
		c3.488-4.77,10.182-5.81,14.952-2.322l22.538,16.478c4.77,3.488,5.81,10.182,2.322,14.952L48.968,430.145z"/>
	<path style="fill:#EF4A6E;" d="M475.473,151.074c1.931,12.443,1.923,26.994-0.449,42.261c-2.371,15.272-6.777,29.136-12.395,40.411
		l-20.653-3.208c-5.839-0.907-11.307,3.091-12.214,8.93l-4.284,27.585c-0.907,5.839,3.091,11.307,8.93,12.214l4.802,0.745
		c30.403,4.721,61.314-31.775,69.039-81.517c7.725-49.743-10.661-93.895-41.064-98.618l-4.802-0.745
		c-5.839-0.907-11.307,3.091-12.214,8.93l-4.284,27.589c-0.907,5.839,3.091,11.307,8.93,12.214L475.473,151.074z"/>
</g>
<path style="fill:#00C7A9;" d="M213.673,110.233V46.04c0-13.971-11.326-25.298-25.298-25.298H47.479
	c-13.971,0-25.299,11.326-25.299,25.298v78.147c0,13.971,11.326,25.298,25.298,25.298h166.195h43.275L213.673,110.233z"/>
<g>
	<path style="fill:#50515B;" d="M158.105,76.595H60.817c-4.481,0-8.114-3.633-8.114-8.114s3.633-8.114,8.114-8.114h97.288
		c4.481,0,8.114,3.633,8.114,8.114S162.587,76.595,158.105,76.595z"/>
	<path style="fill:#50515B;" d="M175.956,109.861h-54.08c-4.481,0-8.114-3.633-8.114-8.114s3.633-8.114,8.114-8.114h54.08
		c4.481,0,8.114,3.633,8.114,8.114S180.438,109.861,175.956,109.861z"/>
	<path style="fill:#50515B;" d="M95.912,109.861H60.817c-4.481,0-8.114-3.633-8.114-8.114s3.633-8.114,8.114-8.114h35.094
		c4.481,0,8.114,3.633,8.114,8.114S100.393,109.861,95.912,109.861z"/>
</g>
<path style="fill:#F9CE55;" d="M289.405,399.095v-64.192c0-13.971,11.326-25.298,25.299-25.298H455.6
	c13.971,0,25.298,11.326,25.298,25.298v78.147c0,13.971-11.326,25.299-25.298,25.299H289.405H246.13L289.405,399.095z"/>
<g>
	<path style="fill:#50515B;" d="M425.329,365.456h-97.288c-4.482,0-8.114-3.633-8.114-8.114s3.632-8.114,8.114-8.114h97.288
		c4.482,0,8.114,3.633,8.114,8.114S429.811,365.456,425.329,365.456z"/>
	<path style="fill:#50515B;" d="M443.18,398.723h-24.344c-4.482,0-8.114-3.633-8.114-8.114s3.632-8.114,8.114-8.114h24.344
		c4.482,0,8.114,3.633,8.114,8.114S447.662,398.723,443.18,398.723z"/>
	<path style="fill:#50515B;" d="M392.87,398.723h-64.829c-4.482,0-8.114-3.633-8.114-8.114s3.632-8.114,8.114-8.114h64.829
		c4.482,0,8.114,3.633,8.114,8.114S397.352,398.723,392.87,398.723z"/>
</g>
<g>
</g>
<g>
</g>
<g>
</g>
<g>
</g>
<g>
</g>
<g>
</g>
<g>
</g>
<g>
</g>
<g>
</g>
<g>
</g>
<g>
</g>
<g>
</g>
<g>
</g>
<g>
</g>
<g>
</g>
</svg>
