<svg height="512" viewBox="0 0 58 58" width="512" xmlns="http://www.w3.org/2000/svg"><g id="Page-1" fill="none" fill-rule="evenodd"><g id="040---Column-Design" fill-rule="nonzero"><path id="Shape" d="m4.44 50.71 7.56-2.71 1 5-1 5-7.56-2.71z" fill="#f9c795"/><path id="Shape" d="m5 53c.00336994.7976378-.18891179 1.5839327-.56 2.29l-3.78-1.35c-.39548448-.1435417-.65882556-.5192718-.65882556-.94s.26334108-.7964583.65882556-.94l3.78-1.35c.37108821.7060673.56336994 1.4923622.56 2.29z" fill="#464f5d"/><path id="Rectangle-path" d="m43 48h6v10h-6z" fill="#bdc3c7"/><path id="Rectangle-path" d="m0 7h58v16h-58z" fill="#ecf0f1"/><path id="Shape" d="m58 4v4h-58v-4c0-2.209139 1.790861-4 4-4h50c2.209139 0 4 1.790861 4 4z" fill="#547580"/><path id="Shape" d="m58 22v21c0 .5522847-.4477153 1-1 1h-56c-.55228475 0-1-.4477153-1-1v-21z" fill="#9fc9d3"/><circle id="Oval" cx="4" cy="4" fill="#e64c3c" r="1"/><circle id="Oval" cx="8" cy="4" fill="#f0c419" r="1"/><circle id="Oval" cx="12" cy="4" fill="#24ae5f" r="1"/><path id="Shape" d="m54 5h-10c-.5522847 0-1-.44771525-1-1s.4477153-1 1-1h10c.5522847 0 1 .44771525 1 1s-.4477153 1-1 1z" fill="#ecf0f1"/><rect id="Rectangle-path" fill="#bdc3c7" height="4" rx="1" width="48" x="5" y="13"/><g fill="#285680"><path id="Shape" d="m6 26h10c.5522847 0 1 .4477153 1 1v17h-12v-17c0-.5522847.44771525-1 1-1z"/><path id="Shape" d="m24 26h10c.5522847 0 1 .4477153 1 1v17h-12v-17c0-.5522847.4477153-1 1-1z"/><path id="Shape" d="m42 26h10c.5522847 0 1 .4477153 1 1v17h-12v-17c0-.5522847.4477153-1 1-1z"/></g><path id="Shape" d="m58 52v2c0 2.209139-1.790861 4-4 4h-6v-10h6c2.209139 0 4 1.790861 4 4z" fill="#ff5364"/><path id="Rectangle-path" d="m12 52h32v6h-32z" fill="#f0c419"/><path id="Rectangle-path" d="m12 48h32v5h-32z" fill="#f3d55b"/><circle id="Oval" cx="54" cy="54" fill="#fb7b76" r="1"/></g></g></svg>